<?xml version="1.0" encoding="UTF-8" standalone="no"?>
<!DOCTYPE svg PUBLIC "-//W3C//DTD SVG 1.1//EN"
 "http://www.w3.org/Graphics/SVG/1.1/DTD/svg11.dtd">
<!-- Generated by graphviz version 2.47.0 (20210316.0004)
 -->
<!-- Title: dependencies Pages: 1 -->
<svg width="809pt" height="284pt"
 viewBox="0.00 0.00 809.00 284.00" xmlns="http://www.w3.org/2000/svg" xmlns:xlink="http://www.w3.org/1999/xlink">
<g id="graph0" class="graph" transform="scale(1 1) rotate(0) translate(4 280)">
<title>dependencies</title>
<polygon fill="white" stroke="transparent" points="-4,4 -4,-280 805,-280 805,4 -4,4"/>
<text text-anchor="start" x="379.51" y="-42.4" font-family="Times-12" font-weight="bold" font-size="14.00">Legend</text>
<polygon fill="#ffffb3" stroke="transparent" points="166.5,-10 166.5,-30 186.5,-30 186.5,-10 166.5,-10"/>
<text text-anchor="start" x="190.13" y="-15.4" font-family="Times-12" font-size="14.00"> &#160;Declarations</text>
<polygon fill="#8dd3c7" stroke="transparent" points="279.5,-10 279.5,-30 299.5,-30 299.5,-10 279.5,-10"/>
<text text-anchor="start" x="303.23" y="-15.4" font-family="Times-12" font-size="14.00"> &#160;Module</text>
<polygon fill="#80b1d3" stroke="transparent" points="365.5,-10 365.5,-30 385.5,-30 385.5,-10 365.5,-10"/>
<text text-anchor="start" x="389.28" y="-15.4" font-family="Times-12" font-size="14.00"> &#160;Bootstrap</text>
<polygon fill="#fdb462" stroke="transparent" points="462.5,-10 462.5,-30 482.5,-30 482.5,-10 462.5,-10"/>
<text text-anchor="start" x="486.17" y="-15.4" font-family="Times-12" font-size="14.00"> &#160;Providers</text>
<polygon fill="#fb8072" stroke="transparent" points="558.5,-10 558.5,-30 578.5,-30 578.5,-10 558.5,-10"/>
<text text-anchor="start" x="582.23" y="-15.4" font-family="Times-12" font-size="14.00"> &#160;Exports</text>
<g id="clust1" class="cluster">
<title>cluster_AppModule</title>
<polygon fill="none" stroke="black" stroke-dasharray="1,5" points="8,-70 8,-268 793,-268 793,-70 8,-70"/>
</g>
<g id="clust7" class="cluster">
<title>cluster_AppModule_imports</title>
<polygon fill="none" stroke="black" points="641,-78 641,-130 785,-130 785,-78 641,-78"/>
</g>
<g id="clust9" class="cluster">
<title>cluster_AppModule_bootstrap</title>
<polygon fill="none" stroke="black" points="368,-208 368,-260 492,-260 492,-208 368,-208"/>
</g>
<g id="clust2" class="cluster">
<title>cluster_AppModule_declarations</title>
<polygon fill="none" stroke="black" points="16,-78 16,-130 633,-130 633,-78 16,-78"/>
</g>
<!-- AppComponent -->
<g id="node1" class="node">
<title>AppComponent</title>
<polygon fill="#ffffb3" stroke="black" points="624.94,-122 519.06,-122 519.06,-86 624.94,-86 624.94,-122"/>
<text text-anchor="middle" x="572" y="-99.8" font-family="Times,serif" font-size="14.00">AppComponent</text>
</g>
<!-- AppModule -->
<g id="node5" class="node">
<title>AppModule</title>
<polygon fill="#8dd3c7" stroke="black" points="471.66,-187 468.66,-191 447.66,-191 444.66,-187 388.34,-187 388.34,-151 471.66,-151 471.66,-187"/>
<text text-anchor="middle" x="430" y="-164.8" font-family="Times,serif" font-size="14.00">AppModule</text>
</g>
<!-- AppComponent&#45;&gt;AppModule -->
<g id="edge1" class="edge">
<title>AppComponent&#45;&gt;AppModule</title>
<path fill="none" stroke="black" d="M572,-122.02C572,-139.37 572,-163 572,-163 572,-163 481.84,-163 481.84,-163"/>
<polygon fill="black" stroke="black" points="481.84,-159.5 471.84,-163 481.84,-166.5 481.84,-159.5"/>
</g>
<!-- ColorToNoteDirective -->
<g id="node2" class="node">
<title>ColorToNoteDirective</title>
<polygon fill="#ffffb3" stroke="black" points="501.24,-122 358.76,-122 358.76,-86 501.24,-86 501.24,-122"/>
<text text-anchor="middle" x="430" y="-99.8" font-family="Times,serif" font-size="14.00">ColorToNoteDirective</text>
</g>
<!-- ColorToNoteDirective&#45;&gt;AppModule -->
<g id="edge2" class="edge">
<title>ColorToNoteDirective&#45;&gt;AppModule</title>
<path fill="none" stroke="black" d="M430,-122.11C430,-122.11 430,-140.99 430,-140.99"/>
<polygon fill="black" stroke="black" points="426.5,-140.99 430,-150.99 433.5,-140.99 426.5,-140.99"/>
</g>
<!-- GuitarBoardComponent -->
<g id="node3" class="node">
<title>GuitarBoardComponent</title>
<polygon fill="#ffffb3" stroke="black" points="340.81,-122 189.19,-122 189.19,-86 340.81,-86 340.81,-122"/>
<text text-anchor="middle" x="265" y="-99.8" font-family="Times,serif" font-size="14.00">GuitarBoardComponent</text>
</g>
<!-- GuitarBoardComponent&#45;&gt;AppModule -->
<g id="edge3" class="edge">
<title>GuitarBoardComponent&#45;&gt;AppModule</title>
<path fill="none" stroke="black" d="M265,-122.02C265,-139.37 265,-163 265,-163 265,-163 377.94,-163 377.94,-163"/>
<polygon fill="black" stroke="black" points="377.94,-166.5 387.94,-163 377.94,-159.5 377.94,-166.5"/>
</g>
<!-- PianoBoardComponent -->
<g id="node4" class="node">
<title>PianoBoardComponent</title>
<polygon fill="#ffffb3" stroke="black" points="171.93,-122 24.07,-122 24.07,-86 171.93,-86 171.93,-122"/>
<text text-anchor="middle" x="98" y="-99.8" font-family="Times,serif" font-size="14.00">PianoBoardComponent</text>
</g>
<!-- PianoBoardComponent&#45;&gt;AppModule -->
<g id="edge4" class="edge">
<title>PianoBoardComponent&#45;&gt;AppModule</title>
<path fill="none" stroke="black" d="M98,-122.28C98,-143.32 98,-175 98,-175 98,-175 378.29,-175 378.29,-175"/>
<polygon fill="black" stroke="black" points="378.29,-178.5 388.29,-175 378.29,-171.5 378.29,-178.5"/>
</g>
<!-- AppComponent  -->
<g id="node7" class="node">
<title>AppComponent </title>
<polygon fill="#80b1d3" stroke="black" points="484.44,-252 375.56,-252 375.56,-216 484.44,-216 484.44,-252"/>
<text text-anchor="middle" x="430" y="-229.8" font-family="Times,serif" font-size="14.00">AppComponent </text>
</g>
<!-- AppModule&#45;&gt;AppComponent  -->
<g id="edge6" class="edge">
<title>AppModule&#45;&gt;AppComponent </title>
<path fill="none" stroke="black" stroke-dasharray="1,5" d="M430,-187.11C430,-187.11 430,-205.99 430,-205.99"/>
<polygon fill="black" stroke="black" points="426.5,-205.99 430,-215.99 433.5,-205.99 426.5,-205.99"/>
</g>
<!-- AppRoutingModule -->
<g id="node6" class="node">
<title>AppRoutingModule</title>
<polygon fill="#8dd3c7" stroke="black" points="777.27,-122 774.27,-126 753.27,-126 750.27,-122 648.73,-122 648.73,-86 777.27,-86 777.27,-122"/>
<text text-anchor="middle" x="713" y="-99.8" font-family="Times,serif" font-size="14.00">AppRoutingModule</text>
</g>
<!-- AppRoutingModule&#45;&gt;AppModule -->
<g id="edge5" class="edge">
<title>AppRoutingModule&#45;&gt;AppModule</title>
<path fill="none" stroke="black" d="M713,-122.28C713,-143.32 713,-175 713,-175 713,-175 481.76,-175 481.76,-175"/>
<polygon fill="black" stroke="black" points="481.76,-171.5 471.76,-175 481.76,-178.5 481.76,-171.5"/>
</g>
</g>
</svg>
