<?xml version="1.0" encoding="UTF-8" standalone="no"?>
<!DOCTYPE svg PUBLIC "-//W3C//DTD SVG 1.1//EN"
 "http://www.w3.org/Graphics/SVG/1.1/DTD/svg11.dtd">
<!-- Generated by graphviz version 2.47.0 (20210316.0004)
 -->
<!-- Title: dependencies Pages: 1 -->
<svg width="809pt" height="284pt"
 viewBox="0.00 0.00 809.00 284.00" xmlns="http://www.w3.org/2000/svg" xmlns:xlink="http://www.w3.org/1999/xlink">
<g id="graph0" class="graph" transform="scale(1 1) rotate(0) translate(4 280)">
<title>dependencies</title>
<polygon fill="white" stroke="transparent" points="-4,4 -4,-280 805,-280 805,4 -4,4"/>
<text text-anchor="start" x="379.51" y="-42.4" font-family="Times-12" font-weight="bold" font-size="14.00">Legend</text>
<polygon fill="#ffffb3" stroke="transparent" points="166.5,-10 166.5,-30 186.5,-30 186.5,-10 166.5,-10"/>
<text text-anchor="start" x="190.13" y="-15.4" font-family="Times-12" font-size="14.00"> &#160;Declarations</text>
<polygon fill="#8dd3c7" stroke="transparent" points="279.5,-10 279.5,-30 299.5,-30 299.5,-10 279.5,-10"/>
<text text-anchor="start" x="303.23" y="-15.4" font-family="Times-12" font-size="14.00"> &#160;Module</text>
<polygon fill="#80b1d3" stroke="transparent" points="365.5,-10 365.5,-30 385.5,-30 385.5,-10 365.5,-10"/>
<text text-anchor="start" x="389.28" y="-15.4" font-family="Times-12" font-size="14.00"> &#160;Bootstrap</text>
<polygon fill="#fdb462" stroke="transparent" points="462.5,-10 462.5,-30 482.5,-30 482.5,-10 462.5,-10"/>
<text text-anchor="start" x="486.17" y="-15.4" font-family="Times-12" font-size="14.00"> &#160;Providers</text>
<polygon fill="#fb8072" stroke="transparent" points="558.5,-10 558.5,-30 578.5,-30 578.5,-10 558.5,-10"/>
<text text-anchor="start" x="582.23" y="-15.4" font-family="Times-12" font-size="14.00"> &#160;Exports</text>
<g id="clust1" class="cluster">
<title>cluster_AppModule</title>
<polygon fill="none" stroke="black" stroke-dasharray="1,5" points="8,-70 8,-268 793,-268 793,-70 8,-70"/>
</g>
<g id="clust2" class="cluster">
<title>cluster_AppModule_declarations</title>
<polygon fill="none" stroke="black" points="168,-78 168,-130 785,-130 785,-78 168,-78"/>
</g>
<g id="clust7" class="cluster">
<title>cluster_AppModule_imports</title>
<polygon fill="none" stroke="black" points="16,-78 16,-130 160,-130 160,-78 16,-78"/>
</g>
<g id="clust9" class="cluster">
<title>cluster_AppModule_bootstrap</title>
<polygon fill="none" stroke="black" points="355,-208 355,-260 479,-260 479,-208 355,-208"/>
</g>
<!-- AppComponent -->
<g id="node1" class="node">
<title>AppComponent</title>
<polygon fill="#ffffb3" stroke="black" points="776.94,-122 671.06,-122 671.06,-86 776.94,-86 776.94,-122"/>
<text text-anchor="middle" x="724" y="-99.8" font-family="Times,serif" font-size="14.00">AppComponent</text>
</g>
<!-- AppModule -->
<g id="node5" class="node">
<title>AppModule</title>
<polygon fill="#8dd3c7" stroke="black" points="458.66,-187 455.66,-191 434.66,-191 431.66,-187 375.34,-187 375.34,-151 458.66,-151 458.66,-187"/>
<text text-anchor="middle" x="417" y="-164.8" font-family="Times,serif" font-size="14.00">AppModule</text>
</g>
<!-- AppComponent&#45;&gt;AppModule -->
<g id="edge1" class="edge">
<title>AppComponent&#45;&gt;AppModule</title>
<path fill="none" stroke="black" d="M724,-122.28C724,-143.32 724,-175 724,-175 724,-175 468.72,-175 468.72,-175"/>
<polygon fill="black" stroke="black" points="468.72,-171.5 458.72,-175 468.72,-178.5 468.72,-171.5"/>
</g>
<!-- ColorToNoteDirective -->
<g id="node2" class="node">
<title>ColorToNoteDirective</title>
<polygon fill="#ffffb3" stroke="black" points="653.24,-122 510.76,-122 510.76,-86 653.24,-86 653.24,-122"/>
<text text-anchor="middle" x="582" y="-99.8" font-family="Times,serif" font-size="14.00">ColorToNoteDirective</text>
</g>
<!-- ColorToNoteDirective&#45;&gt;AppModule -->
<g id="edge2" class="edge">
<title>ColorToNoteDirective&#45;&gt;AppModule</title>
<path fill="none" stroke="black" d="M582,-122.02C582,-139.37 582,-163 582,-163 582,-163 469.06,-163 469.06,-163"/>
<polygon fill="black" stroke="black" points="469.06,-159.5 459.06,-163 469.06,-166.5 469.06,-159.5"/>
</g>
<!-- GuitarBoardComponent -->
<g id="node3" class="node">
<title>GuitarBoardComponent</title>
<polygon fill="#ffffb3" stroke="black" points="492.81,-122 341.19,-122 341.19,-86 492.81,-86 492.81,-122"/>
<text text-anchor="middle" x="417" y="-99.8" font-family="Times,serif" font-size="14.00">GuitarBoardComponent</text>
</g>
<!-- GuitarBoardComponent&#45;&gt;AppModule -->
<g id="edge3" class="edge">
<title>GuitarBoardComponent&#45;&gt;AppModule</title>
<path fill="none" stroke="black" d="M417,-122.11C417,-122.11 417,-140.99 417,-140.99"/>
<polygon fill="black" stroke="black" points="413.5,-140.99 417,-150.99 420.5,-140.99 413.5,-140.99"/>
</g>
<!-- PianoBoardComponent -->
<g id="node4" class="node">
<title>PianoBoardComponent</title>
<polygon fill="#ffffb3" stroke="black" points="323.93,-122 176.07,-122 176.07,-86 323.93,-86 323.93,-122"/>
<text text-anchor="middle" x="250" y="-99.8" font-family="Times,serif" font-size="14.00">PianoBoardComponent</text>
</g>
<!-- PianoBoardComponent&#45;&gt;AppModule -->
<g id="edge4" class="edge">
<title>PianoBoardComponent&#45;&gt;AppModule</title>
<path fill="none" stroke="black" d="M250,-122.02C250,-139.37 250,-163 250,-163 250,-163 365.29,-163 365.29,-163"/>
<polygon fill="black" stroke="black" points="365.29,-166.5 375.29,-163 365.29,-159.5 365.29,-166.5"/>
</g>
<!-- AppComponent  -->
<g id="node7" class="node">
<title>AppComponent </title>
<polygon fill="#80b1d3" stroke="black" points="471.44,-252 362.56,-252 362.56,-216 471.44,-216 471.44,-252"/>
<text text-anchor="middle" x="417" y="-229.8" font-family="Times,serif" font-size="14.00">AppComponent </text>
</g>
<!-- AppModule&#45;&gt;AppComponent  -->
<g id="edge6" class="edge">
<title>AppModule&#45;&gt;AppComponent </title>
<path fill="none" stroke="black" stroke-dasharray="1,5" d="M417,-187.11C417,-187.11 417,-205.99 417,-205.99"/>
<polygon fill="black" stroke="black" points="413.5,-205.99 417,-215.99 420.5,-205.99 413.5,-205.99"/>
</g>
<!-- AppRoutingModule -->
<g id="node6" class="node">
<title>AppRoutingModule</title>
<polygon fill="#8dd3c7" stroke="black" points="152.27,-122 149.27,-126 128.27,-126 125.27,-122 23.73,-122 23.73,-86 152.27,-86 152.27,-122"/>
<text text-anchor="middle" x="88" y="-99.8" font-family="Times,serif" font-size="14.00">AppRoutingModule</text>
</g>
<!-- AppRoutingModule&#45;&gt;AppModule -->
<g id="edge5" class="edge">
<title>AppRoutingModule&#45;&gt;AppModule</title>
<path fill="none" stroke="black" d="M88,-122.28C88,-143.32 88,-175 88,-175 88,-175 365.33,-175 365.33,-175"/>
<polygon fill="black" stroke="black" points="365.33,-178.5 375.33,-175 365.33,-171.5 365.33,-178.5"/>
</g>
</g>
</svg>
